<?xml version="1.0" encoding="UTF-8"?>
<svg id="Layer_1" xmlns="http://www.w3.org/2000/svg" version="1.1" viewBox="0 0 321.29 321.29">
  <!-- Generator: Adobe Illustrator 29.1.0, SVG Export Plug-In . SVG Version: 2.1.0 Build 142)  -->
  <path d="M160.01,23.44l14,76s6.33,12,9.33,30.33c3,18.33,3.33,32,3.33,32l62.67,46.67,2-29.67s.33-.67,1.67-.67,3.33,21.33,3,28.33c-.33,7,.04,20.67.04,20.67l1.96,4.33-2,2.67h-8.33v-5s-62.67-1.67-62.67-1.67v21.67s30,30,30,30v18.33s-23.33,0-34.67-8.33l-3-5.33v13.67h-19.67s-14.67,0-14.67,0v-13.67l-3,5.33c-11.33,8.33-34.67,8.33-34.67,8.33v-18.33l30-30v-21.67l-62.67,1.67v5h-8.33l-2-2.67,1.96-4.33s.37-13.67.04-20.67,1.67-28.33,3-28.33,1.67.67,1.67.67l2,29.67,62.67-46.67s.33-13.67,3.33-32,9.33-30.33,9.33-30.33l13.67-76Z"/>
</svg>