<?xml version="1.0" encoding="UTF-8"?>
<svg xmlns="http://www.w3.org/2000/svg" version="1.1" viewBox="0 0 321.29 321.29">
  <!-- Generator: Adobe Illustrator 29.1.0, SVG Export Plug-In . SVG Version: 2.1.0 Build 142)  -->
  <defs>
    <style>
      .st0 {
        display: none;
      }
    </style>
  </defs>
  <g id="F-16_Fighting_Falcon" class="st0">
    <path d="M160.01,23.44l14,76s6.33,12,9.33,30.33c3,18.33,3.33,32,3.33,32l62.67,46.67,2-29.67s.33-.67,1.67-.67,3.33,21.33,3,28.33c-.33,7,.04,20.67.04,20.67l1.96,4.33-2,2.67h-8.33v-5s-62.67-1.67-62.67-1.67v21.67s30,30,30,30v18.33s-23.33,0-34.67-8.33l-3-5.33v13.67h-19.67s-14.67,0-14.67,0v-13.67l-3,5.33c-11.33,8.33-34.67,8.33-34.67,8.33v-18.33l30-30v-21.67l-62.67,1.67v5h-8.33l-2-2.67,1.96-4.33s.37-13.67.04-20.67,1.67-28.33,3-28.33,1.67.67,1.67.67l2,29.67,62.67-46.67s.33-13.67,3.33-32,9.33-30.33,9.33-30.33l13.67-76Z"/>
  </g>
  <g id="F-18_Hornet_x2F_SupeHornetF-18_Hornet_x2F_SupeHornet" class="st0">
    <path d="M160.18,272.61l2,4.33h12.33s1.33-6.67,1.33-6.67l31,22,5.67-4,.33-18-26-31.33v-15.33s70.33-6,70.33-6v-39.33s-.33-2.33-2-2.33-2.11,3.33-2.11,3.33v11.56s-66.67-29.78-66.67-29.78l-3.56-28.44c-3.56-28.44-11.56-39.56-11.56-39.56l-11.11-64.44s-11.11,64.44-11.11,64.44c0,0-8,11.11-11.56,39.56l-3.56,28.44-66.67,29.78v-11.56s-.44-3.33-2.11-3.33-2,2.33-2,2.33v39.33l70.33,6v15.33l-26,31.33.33,18,5.67,4,31-22,1.33,6.67h12.33s2-4.33,2-4.33Z"/>
  </g>
  <g id="F-15_Eagle_x2F_Strike_Eagle" class="st0">
    <path d="M159.68,279.55l8.89-8.89.44,11.11h11.56s2.67-3.56,2.67-3.56l3.11,19.11,37.33,9.78,8.44-14.67-36-32-4.44,12.89,1.33-36.89s32.44,2.67,43.11,4,15.56,7.11,15.56,7.11l13.78-23.11-52-52.85v-13.82s-3.11,0-3.11,0v9.78c0,7.11-2.22,2.67-2.22,2.67l-18.22-17.33v-16.44c0-4.44-6.67-16.44-6.67-16.44v-25.78s-12.11,0-12.11,0c0,0-2.11-39.56-3-53.33-.89-13.78-8-27.11-8-27.11h.11s-7.11,13.33-8,27.11-3,53.33-3,53.33h-12.11v25.78s-6.67,12-6.67,16.44v16.44l-18.22,17.33s-2.22,4.44-2.22-2.67v-9.78h-3.11v13.82l-52,52.85,13.78,23.11s4.89-5.78,15.56-7.11,43.11-4,43.11-4l1.33,36.89-4.44-12.89-36,32,8.44,14.67,37.33-9.78,3.11-19.11,2.67,3.56h11.56l.44-11.11,8.89,8.89h-1Z"/>
  </g>
  <g id="F-14_Tomcat" class="st0">
    <path d="M241.96,265.02l-61.8-158.55c-.36-.92-1.52-1.21-2.27-.55l-2.03,1.77c-2.6,2.27-3.06,5.97-3.12,7.8-.02.61-.53,1.09-1.14,1.09s-1.1-.47-1.14-1.07l-2.15-34.89s0-.05,0-.08c0-35.09-10.67-63.07-10.67-63.07,0,0-10.66,27.98-10.67,63.07,0,.03,0,.05,0,.08l-2.15,34.89c-.04.6-.54,1.07-1.14,1.07s-1.12-.48-1.14-1.09c-.06-1.83-.52-5.52-3.12-7.8l-2.03-1.77c-.74-.65-1.91-.37-2.27.55l-61.8,158.55c-1.18,3.04-.71,6.47,1.26,9.07l8.12,10.73c.58.76,1.72.75,2.29-.02l35.22-48.22c.52-.71,1.54-.79,2.16-.17.48.48.55,1.23.18,1.79l-33.84,51.08c-.26.39-.31.87-.14,1.3l2.34,6.01c.28.72,1.09,1.09,1.81.82l36.13-13.14c.84-.31,1.75.22,1.89,1.11.36,2.28,1.29,6.44,3.52,9.93.69,1.09,2.37.74,2.6-.53l2.17-12.1c.18-1.01,1.33-1.5,2.19-.94l16.42,10.81,16.42-10.81c.85-.56,2.01-.07,2.19.94l2.17,12.1c.23,1.27,1.91,1.62,2.6.53,2.22-3.49,3.15-7.65,3.52-9.93.14-.88,1.05-1.41,1.89-1.11l36.13,13.14c.73.26,1.53-.1,1.81-.82l2.34-6.01c.17-.43.12-.92-.14-1.3l-33.84-51.08c-.37-.56-.3-1.32.18-1.79.62-.62,1.64-.54,2.16.17l35.22,48.22c.56.77,1.71.78,2.29.02l8.12-10.73c1.97-2.6,2.45-6.04,1.26-9.07Z"/>
  </g>
  <g id="F-22_Raptor" class="st0">
    <path d="M258.64,208.96l-67.15-59.25c-.25-.22-.41-.53-.45-.87l-4.54-44.12c-.04-.43-.3-.82-.68-1.03l-14.05-7.94c-.42-.24-.67-.67-.68-1.15-.14-8.36-2.43-21.87-2.64-23.14-.01-.07-.02-.13-.02-.2-.03-16.87-7.1-40.33-10.05-49.42-.4-1.24-2.15-1.24-2.56,0-2.96,9.09-10.03,32.56-10.05,49.42,0,.07,0,.13-.02.2-.22,1.27-2.51,14.78-2.64,23.14,0,.48-.26.91-.68,1.15l-14.05,7.94c-.38.21-.63.6-.68,1.03l-4.54,44.12c-.03.34-.19.65-.45.87l-67.15,59.25c-.29.26-.46.62-.46,1.01v17.15c0,.55.33,1.04.84,1.25l51.97,20.91c.89.36,1.13,1.5.46,2.18l-20.89,21.5c-.24.25-.38.59-.38.94v7.71c0,.27.08.54.23.76l8.03,11.74c.25.37.67.59,1.11.59h20.58c.44,0,.86-.22,1.11-.58l6.31-9.17c.33-.47.91-.69,1.46-.53,1.47.41,4.94.35,10.75-5.31.26-.25.41-.61.41-.97v-14.68c0-.98,1.01-1.63,1.9-1.22l5.17,2.35c.17.08.36.12.56.12h7.19c.11,0,.22-.01.33-.04.46-.12,1.91-.41,2.19.71.2.8.16,2.37.1,3.51-.04.74.52,1.37,1.26,1.41l1.23.08c.06,0,.11,0,.17,0l1.23-.08c.74-.05,1.3-.68,1.26-1.41-.06-1.14-.1-2.71.1-3.51.28-1.12,1.73-.83,2.19-.71.11.03.22.04.33.04h7.19c.19,0,.38-.04.56-.12l5.17-2.35c.89-.4,1.9.25,1.9,1.22v14.68c0,.36.15.72.41.97,5.82,5.66,9.28,5.71,10.75,5.31.55-.15,1.14.06,1.46.53l6.31,9.17c.25.36.67.58,1.11.58h20.58c.44,0,.86-.22,1.11-.59l8.03-11.74c.15-.22.23-.49.23-.76v-7.7c0-.35-.14-.69-.38-.94l-20.89-21.5c-.67-.69-.42-1.83.46-2.18l51.97-20.91c.51-.2.84-.7.84-1.25v-17.15c0-.39-.17-.75-.46-1.01Z"/>
  </g>
  <g id="F-35_Lightning_II__x28_A_x2F_B_x2F_C_x29_">
    <path d="M243.76,198.87l-52.44-36.89-3.56-56-7.11,4h-4.89s-4.89-25.78-4.89-44.89-10.22-29.78-10.22-29.78c0,0-10.22,10.67-10.22,29.78s-4.89,44.89-4.89,44.89h-4.89l-7.11-4-3.56,56-52.44,36.89v21.78l52.44,17.78-31.11,32,15.56,15.56h20l2.91-2.06c4.86-3.44,7.75-9.03,7.75-14.99v-14.94h6.22s7.11,9.33,7.11,11.11,2.22,14.22,2.22,14.22c0,0,2.22-12.44,2.22-14.22s7.11-11.11,7.11-11.11h6.22v14.94c0,5.96,2.89,11.55,7.75,14.99l2.91,2.06h20l15.56-15.56-31.11-32,52.44-17.78v-21.78Z"/>
  </g>
</svg>